# xmcd CD database file
#
# Track frame offsets:
#	150
#	11098
#	29077
#	50401
#	65840
#	82919
#	98426
#	111634
#	130638
#	141221
#	171892
#	181129
#	192343
#	202443
#
# Disc length: 2900 seconds
#
# Revision: 0
# Processed by: cddbd v1.5.2PL0 Copyright (c) Steve Scherf et al.
# Submitted via: CDex 1.51
#
DISCID=cd0b520e
DTITLE=Levee Town - Levee Town
DYEAR=1900
DGENRE=Blues
TTITLE0=I'm Not Broke
TTITLE1=Three Sides
TTITLE2=You Mean
TTITLE3=Why Why Why
TTITLE4=Broken Jar
TTITLE5=Rhythm Man
TTITLE6=Vegas
TTITLE7=KC Killa
TTITLE8=Etta
TTITLE9=Heartless is the Winter
TTITLE10=Hullabaloo
TTITLE11=Rock Me Baby
TTITLE12=Pressures
TTITLE13=Chicken Truck
EXTD=
EXTT0=
EXTT1=
EXTT2=
EXTT3=
EXTT4=
EXTT5=
EXTT6=
EXTT7=
EXTT8=
EXTT9=
EXTT10=
EXTT11=
EXTT12=
EXTT13=
PLAYORDER=
